<svg width="73" height="30" viewBox="0 0 73 30" fill="none" xmlns="http://www.w3.org/2000/svg">
<path d="M15.7291 15.4443C15.6977 14.6009 15.5501 13.8595 15.2867 13.219C15.0225 12.5794 14.6732 12.0479 14.2389 11.6263C13.8041 11.2045 13.3078 10.8928 12.7491 10.6893C12.1903 10.4866 11.6157 10.3848 11.0264 10.3848C9.81576 10.3848 8.76798 10.8296 7.88329 11.7197C6.9986 12.6098 6.49375 13.8514 6.37009 15.4443H15.7291ZM6.18392 19.2855C6.277 21.0352 6.78132 22.4247 7.69712 23.4554C8.61239 24.4859 9.81576 25.0011 11.3056 25.0011C12.2987 25.0011 13.1753 24.7749 13.9363 24.322C14.6966 23.8697 15.1856 23.2371 15.4031 22.4247H21.6424C20.928 24.7984 19.6868 26.6256 17.9174 27.9057C16.1481 29.1867 14.0367 29.8266 11.5851 29.8266C3.94886 29.8266 0.130859 25.6416 0.130859 17.2715C0.130859 15.4913 0.378722 13.883 0.87579 12.446C1.37205 11.0096 2.09365 9.77566 3.04084 8.74492C3.98749 7.71418 5.14338 6.92582 6.50985 6.379C7.87524 5.833 9.44316 5.55933 11.2125 5.55933C14.7513 5.55933 17.4284 6.69991 19.2445 8.97919C21.0605 11.2593 21.9683 14.6948 21.9683 19.2855H6.18392Z" fill="black"/>
<path d="M37.9854 17.9268C37.6747 18.2394 37.2246 18.489 36.6353 18.6764C36.0454 18.8639 35.1918 19.0674 34.0743 19.2852C32.3355 19.6296 31.141 20.0666 30.4891 20.5975C29.8373 21.1286 29.5113 21.8935 29.5113 22.8924C29.5113 24.6109 30.4891 25.4691 32.4447 25.4691C33.2202 25.4691 33.9418 25.3369 34.6097 25.0713C35.2766 24.806 35.8509 24.4468 36.3324 23.9939C36.8134 23.5415 37.201 23.0098 37.4966 22.4007C37.7911 21.7918 37.9387 21.144 37.9387 20.4566L37.9854 17.9268ZM38.4044 29.2172C38.2182 28.6242 38.0937 27.9368 38.032 27.156C37.3177 27.9684 36.371 28.6161 35.1918 29.1001C34.0118 29.5837 32.6461 29.8263 31.0943 29.8263C28.4558 29.8263 26.5233 29.2407 25.2974 28.0696C24.0707 26.8982 23.4583 25.3757 23.4583 23.5018C23.4583 21.8466 23.7217 20.5268 24.2499 19.543C24.7773 18.5595 25.5069 17.7862 26.4383 17.224C27.3694 16.6618 28.4791 16.2484 29.7675 15.9828C31.0551 15.7175 32.4599 15.4754 33.9809 15.2562C35.5016 15.0384 36.5261 14.7494 37.0543 14.3898C37.5816 14.0312 37.8456 13.4455 37.8456 12.6331C37.8456 11.8833 37.4966 11.2979 36.7981 10.8763C36.0998 10.4545 35.1604 10.2437 33.9809 10.2437C32.5841 10.2437 31.583 10.5562 30.9779 11.1808C30.373 11.8059 29.9923 12.6331 29.8373 13.6638H24.2032C24.2338 12.4774 24.428 11.3843 24.7853 10.3846C25.1418 9.38514 25.7164 8.5266 26.508 7.80787C27.2996 7.08967 28.3313 6.53557 29.6042 6.14476C30.8767 5.75449 32.4286 5.55908 34.2604 5.55908C36.0604 5.55908 37.5897 5.76258 38.8467 6.16797C40.104 6.57444 41.1123 7.15984 41.8734 7.92473C42.6336 8.69043 43.1843 9.6429 43.5263 10.7824C43.8675 11.923 44.0384 13.2112 44.0384 14.6476V29.2172H38.4044Z" fill="black"/>
<path d="M59.1716 5.55957C58.5492 5.55957 57.943 5.59196 57.3555 5.65403C56.7654 5.71611 56.1833 5.86455 55.6092 6.09667C55.0325 6.33148 54.4745 6.66885 53.9326 7.10608C53.3881 7.54331 52.8677 8.15058 52.3714 8.93328V6.16684H46.6926V29.2161H52.7443V17.2245C52.7443 13.508 54.5925 11.6487 58.2863 11.6487C58.5921 11.6487 58.8953 11.6619 59.2011 11.6916V5.55957H59.1716Z" fill="black"/>
<path d="M73.0001 0V29.2164H66.946V11.7864H61.8544V5.34909C62.6564 5.30321 63.3595 5.20632 63.9655 5.06057C64.8671 4.84169 65.6048 4.50431 66.1785 4.05116C66.7526 3.60043 67.1872 3.03634 67.4825 2.3643C67.7773 1.69468 67.9705 0.906585 68.0646 0H73.0001Z" fill="black"/>
</svg>
