<svg width="39" height="45" viewBox="0 0 39 45" fill="none" xmlns="http://www.w3.org/2000/svg">
<mask id="mask0_1_41" style="mask-type:alpha" maskUnits="userSpaceOnUse" x="0" y="0" width="39" height="45">
<path d="M17.5703 0.0448029C16.9734 0.0817788 16.3798 0.172734 15.7996 0.320908C15.2698 0.456126 14.7451 0.613746 14.2169 0.756522C9.29746 2.03961 5.54062 4.89701 2.87287 9.25235C0.463184 13.1853 -0.355247 17.4478 0.136723 21.9942C0.564046 25.9425 2.32913 29.2917 4.84022 32.2751C7.0734 34.9285 9.7052 37.1249 12.5908 39.0323C15.5839 41.0106 18.7713 42.5585 22.1893 43.6305C23.0332 43.895 23.9002 44.0553 24.7661 44.2213C24.9512 44.2567 25.1527 44.2907 25.2803 44.1004C25.3852 43.9444 25.3439 43.7833 25.2742 43.6348C25.1993 43.4758 25.0942 43.3331 24.9823 43.1973C24.4083 42.5012 23.989 41.7161 23.636 40.8897C23.2202 39.9156 23.3693 38.8414 24.7409 38.483C28.318 37.5478 31.2819 35.563 33.7063 32.7876C37.1952 28.7934 38.8256 24.0945 38.5493 18.7983C38.2564 13.1864 35.9918 8.45831 31.7653 4.76153C28.0752 1.53437 23.787 0 19.0038 0C18.5306 0 18.0531 0.0151142 17.5703 0.0448029Z" fill="white"/>
</mask>
<g mask="url(#mask0_1_41)">
<path d="M39.9203 -1.34961V18.4784L34.3938 18.4364C34.3844 18.4364 34.375 18.4364 34.3656 18.4363L34.3374 18.4362C33.0308 18.4362 31.748 18.7919 30.6246 19.4666L29.2761 20.2771L27.8707 18.6842C27.7575 18.5565 27.6309 18.4405 27.4933 18.339C26.9732 17.9549 26.3358 17.7981 25.6987 17.8969C25.0614 17.9957 24.5002 18.3382 24.1187 18.8615L23.2373 20.0707L22.0478 15.701C21.8391 14.9332 21.2307 14.3448 20.4587 14.1659C19.9002 14.0374 19.3251 14.134 18.839 14.4403C18.353 14.7464 18.015 15.2247 17.8865 15.7866L16.8137 20.4806L16.1533 17.4994C15.9631 16.643 15.3263 15.9542 14.4918 15.7024C13.8735 15.5153 13.2208 15.5817 12.6532 15.8894C12.0853 16.1968 11.6703 16.708 11.4847 17.3296L10.6976 19.9657L10.1754 18.3763C9.84728 17.3795 8.92638 16.7102 7.88316 16.7102H6.43783C5.69719 16.7102 5.09658 17.3142 5.09658 18.0597C5.09658 18.8051 5.69719 19.4092 6.43783 19.4092H7.68921L9.21878 24.0627C9.49776 24.9094 10.4101 25.3715 11.2529 25.0908C11.7505 24.925 12.1376 24.524 12.2881 24.0193L13.7584 19.0953L15.2265 25.7212C15.3201 26.1434 15.5712 26.5037 15.9344 26.7358C16.1954 26.9028 16.4921 26.9887 16.7944 26.9887C16.9119 26.9887 17.0308 26.9757 17.1482 26.9493C17.7486 26.8143 18.2266 26.3374 18.3661 25.7318L20.0234 18.481L20.9437 21.8612C21.0947 22.4174 21.4526 22.8811 21.9505 23.1669C22.4483 23.4522 23.0269 23.5254 23.5798 23.3737C24.045 23.2457 24.4583 22.9594 24.7437 22.568L26.0855 20.7271L27.2701 22.0693C28.125 23.0368 29.5462 23.2576 30.6512 22.5942L31.9996 21.784C32.7169 21.353 33.5241 21.1295 34.3731 21.1354L39.9203 21.1774V45.5982H-1.34137V-1.34961H39.9203Z" fill="#00BF69"/>
</g>
</svg>
